<?xml version="1.0" encoding="utf-8"?>
<!DOCTYPE svg PUBLIC "-//W3C//DTD SVG 1.0//EN" "http://www.w3.org/TR/2001/REC-SVG-20010904/DTD/svg10.dtd">
<svg version="1.0" xmlns="http://www.w3.org/2000/svg" width="389px" height="483px" viewBox="0 0 389 483" preserveAspectRatio="xMidYMid meet">
 <g fill="#48b39a">
  <path d="M316.65 390.89 c0.04 -1.51 0.17 -2.72 0.34 -2.72 0.13 0 0.59 -0.13 0.96 -0.25 0.59 -0.25 0.67 0.08 0.54 2.60 -0.13 2.56 -0.21 2.89 -1.01 3.02 -0.80 0.13 -0.84 -0.08 -0.84 -2.64z"/>
  <path d="M64.13 301.39 l0 -77.55 22.55 0.08 22.51 0.13 0.13 58.60 0.08 58.60 15.43 -0.13 15.38 -0.13 2.43 -1.22 c3.27 -1.59 7.38 -5.49 9.01 -8.51 2.77 -5.28 2.60 0.46 2.60 -85.30 0 -76.37 0 -77.80 -0.84 -81.03 -1.68 -6.58 -6.41 -12.07 -11.82 -13.71 -1.13 -0.34 -1.80 -0.84 -2.05 -1.55 -0.25 -0.63 -0.38 -8.17 -0.29 -18.57 0.13 -15.05 0.21 -17.61 0.75 -17.94 0.38 -0.25 15.51 -0.38 39.57 -0.29 l38.98 0.08 2.85 16.77 c5.83 34.21 15.68 92.56 22.13 130.95 3.69 21.76 6.75 39.61 6.83 39.74 0.25 0.25 0.38 -0.54 3.23 -19.16 1.34 -9.10 4.65 -30.68 7.34 -48 2.68 -17.27 6.83 -44.31 9.22 -60.07 5.78 -37.64 9.01 -58.35 9.31 -59.52 l0.21 -0.92 30.26 0.08 30.22 0.13 0 98.09 0 98.09 -22.51 0.13 -22.55 0.08 0 -38.15 c0 -24.65 -0.13 -38.15 -0.42 -38.15 -0.50 0 -0.38 -0.67 -3.14 15.72 -1.26 7.63 -3.06 18.07 -3.98 23.26 -6.04 34.88 -14.04 80.78 -16.93 97.71 -0.84 4.74 -1.51 8.76 -1.51 8.89 0 0.17 -9.22 0.29 -20.54 0.29 -11.28 0 -20.54 -0.13 -20.54 -0.29 0 -0.84 -8.47 -49.34 -14.67 -84.17 -1.84 -10.35 -5.53 -31.23 -8.22 -46.32 -2.64 -15.09 -5.45 -30.85 -6.16 -34.96 -0.80 -4.49 -1.55 -7.59 -1.84 -7.67 -0.42 -0.17 -0.54 13.41 -0.67 62.42 l-0.13 62.58 -0.96 4.19 c-3.60 16.05 -11.40 27.54 -23.68 35 -6.37 3.86 -16.26 7.38 -24.61 8.76 -1.89 0.29 -15.89 0.46 -42.88 0.46 l-40.07 0 0 -77.55z"/>
  <path d="M192.07 69.50 l0.13 -9.35 10.40 -0.13 10.35 -0.08 0 9.43 0 9.43 -10.48 0 -10.48 0 0.08 -9.31z"/>
  <path d="M230.97 58.69 l0 -7.13 1.09 -0.42 c0.59 -0.25 4.15 -0.42 7.96 -0.42 l6.87 0 0 7.55 0 7.55 -7.96 0 -7.96 0 0 -7.13z"/>
 </g>
 <g fill="#062b4e">
  <path d="M66.86 453.81 c-2.52 -1.13 -3.65 -3.02 -4.19 -6.79 -0.84 -6.16 2.22 -11.07 6.87 -11.07 1.97 0 4.02 1.51 4.90 3.65 0.88 2.10 0.75 2.64 -0.63 2.64 -1.05 0 -1.30 -0.21 -1.51 -1.26 -0.34 -1.43 -1.63 -2.52 -3.06 -2.52 -2.68 0 -3.98 2.22 -4.02 6.71 0 2.39 0.17 3.48 0.80 4.49 1.09 1.80 2.72 2.47 4.40 1.80 1.47 -0.59 1.93 -1.34 2.14 -3.14 0.17 -1.22 0.13 -1.26 -1.80 -1.38 -1.80 -0.13 -2.01 -0.21 -2.01 -1.17 0 -0.96 0.08 -1.01 3.14 -1.01 l3.14 0 0 2.64 c0 2.85 -0.84 4.78 -2.68 5.95 -1.47 0.96 -3.98 1.17 -5.49 0.46z"/>
  <path d="M109.15 453.72 c-1.38 -0.67 -2.68 -2.56 -2.68 -3.90 0 -0.71 0.25 -0.88 1.26 -0.88 0.84 0 1.26 0.21 1.26 0.63 0 1.05 1.59 2.31 2.85 2.31 1.63 0 2.68 -1.26 2.52 -3.02 -0.13 -1.26 -0.38 -1.51 -3.19 -2.89 -1.68 -0.84 -3.31 -1.89 -3.65 -2.31 -1.01 -1.34 -0.80 -4.53 0.42 -5.95 1.38 -1.63 4.61 -2.18 6.50 -1.05 1.17 0.67 2.64 3.31 2.22 4.02 -0.46 0.75 -2.05 0.21 -2.72 -0.96 -0.59 -1.01 -1.01 -1.26 -2.14 -1.26 -1.68 0 -2.39 0.63 -2.39 2.10 0 1.43 1.01 2.35 3.48 3.19 2.68 0.92 4.07 2.64 4.07 5.03 0 1.05 -0.29 2.43 -0.63 3.10 -1.22 2.31 -4.49 3.19 -7.17 1.84z"/>
  <path d="M169.56 453.81 c-2.77 -1.22 -3.94 -3.81 -3.98 -8.76 0 -3.60 0.67 -5.70 2.39 -7.50 1.01 -1.05 1.43 -1.17 3.94 -1.17 2.68 0 2.85 0.08 4.07 1.43 1.80 2.10 2.31 3.98 2.10 8.17 -0.21 4.15 -0.96 5.95 -3.27 7.46 -1.55 1.09 -3.35 1.22 -5.24 0.38z m3.77 -2.18 c2.14 -0.84 3.14 -7.92 1.55 -11.07 -0.84 -1.72 -2.47 -2.43 -4.15 -1.84 -1.72 0.59 -2.64 2.77 -2.64 6.16 0 5.07 2.18 7.92 5.24 6.75z"/>
  <path d="M247.02 453.76 c-1.43 -0.63 -2.43 -1.89 -2.85 -3.65 -0.29 -1.09 -0.21 -1.17 1.01 -1.17 0.88 0 1.43 0.25 1.59 0.75 0.46 1.34 1.51 2.18 2.72 2.18 2.31 0 3.73 -2.85 2.22 -4.36 -0.38 -0.34 -1.84 -1.22 -3.31 -1.93 -3.69 -1.76 -4.86 -4.28 -3.40 -7.13 1.13 -2.22 4.53 -3.19 6.87 -1.97 1.26 0.63 2.72 3.02 2.39 3.86 -0.42 1.13 -2.14 0.75 -2.64 -0.63 -0.42 -1.09 -0.67 -1.26 -1.97 -1.26 -1.13 0 -1.68 0.25 -2.18 1.05 -0.63 0.96 -0.63 1.13 0 2.10 0.38 0.59 1.89 1.59 3.35 2.26 2.98 1.34 4.02 2.72 4.02 5.16 0 1.89 -0.80 3.27 -2.47 4.40 -1.59 1.09 -3.40 1.22 -5.37 0.34z"/>
  <path d="M289.32 453.55 c-2.22 -1.38 -2.60 -2.85 -2.60 -10.48 l0 -6.71 1.26 0 1.26 0 0 6.66 c0 6.08 0.08 6.75 0.88 7.75 1.01 1.30 2.39 1.43 3.77 0.29 0.96 -0.80 1.01 -1.05 1.13 -7.75 l0.13 -6.96 1.26 0 1.22 0 -0.04 6.62 c0 3.94 -0.21 7.17 -0.50 8.05 -1.05 2.98 -4.90 4.23 -7.75 2.52z"/>
  <path d="M86.77 445.17 l0 -8.80 4.19 0 4.19 0 0 1.05 c0 1.01 -0.08 1.05 -2.93 1.05 l-2.93 0 0 2.52 0 2.52 2.72 0 2.72 0 0 1.26 0 1.26 -2.72 0 -2.72 0 0 2.72 0 2.72 2.93 0 2.93 0 0 1.26 0 1.26 -4.19 0 -4.19 0 0 -8.80z"/>
  <path d="M130.37 446.22 l0 -7.75 -1.68 0 c-1.59 0 -1.68 -0.08 -1.68 -1.26 l0 -1.30 4.74 0.13 4.69 0.13 0.13 1.13 c0.13 1.05 0 1.13 -1.68 1.26 l-1.80 0.13 -0.13 7.67 -0.08 7.63 -1.26 0 -1.26 0 0 -7.75z"/>
  <path d="M144.03 453.05 c0.17 -0.54 1.30 -4.44 2.47 -8.72 l2.22 -7.75 1.34 0 1.38 0 2.43 8.38 c1.34 4.61 2.43 8.55 2.47 8.72 0 0.21 -0.59 0.29 -1.34 0.21 -1.17 -0.13 -1.38 -0.34 -1.97 -2.22 l-0.67 -2.10 -2.31 0 -2.31 0 -0.59 2.22 c-0.54 2.10 -0.63 2.18 -2.01 2.18 -1.30 0 -1.43 -0.08 -1.13 -0.92z m7.46 -7.34 c-0.71 -2.89 -0.88 -3.27 -1.43 -3.27 -0.54 0 -0.71 0.38 -1.43 3.27 -0.25 1.09 -0.21 1.13 1.43 1.13 1.63 0 1.68 -0.04 1.43 -1.13z"/>
  <path d="M195.34 445.21 l0 -8.84 3.60 0 c6.20 0 7.92 1.89 7.92 8.80 0 3.23 -0.17 4.23 -0.84 5.41 -1.51 2.56 -2.77 3.19 -6.96 3.31 l-3.73 0.17 0 -8.84z m7.08 5.58 c2.81 -1.97 2.89 -9.98 0.13 -11.44 -1.13 -0.63 -3.56 -0.59 -4.19 0.04 -0.54 0.54 -0.71 8.38 -0.25 10.77 0.25 1.17 0.42 1.30 1.80 1.30 0.84 0 1.97 -0.29 2.52 -0.67z"/>
  <path d="M218.81 445.17 l0 -8.80 4.19 0 c4.19 0 4.19 0 4.19 1.05 0 0.96 -0.13 1.01 -2.81 1.13 l-2.85 0.13 -0.13 2.43 -0.13 2.39 2.77 0 2.72 0 0 1.26 0 1.26 -2.72 0 -2.72 0 0 2.85 0 2.81 2.81 0 c2.81 0 2.85 0.04 2.98 1.17 l0.13 1.13 -4.19 0 -4.23 0 0 -8.80z"/>
  <path d="M264.67 453.26 c1.30 -4.28 4.44 -15.85 4.44 -16.31 0 -0.38 0.50 -0.59 1.47 -0.59 0.80 0 1.47 0.08 1.47 0.21 0 0.29 4.49 15.80 4.82 16.68 0.25 0.59 0.04 0.71 -1.13 0.71 -1.43 0 -1.51 -0.08 -2.05 -2.18 l-0.59 -2.22 -2.31 0 -2.31 0 -0.63 2.22 c-0.59 2.05 -0.67 2.18 -2.01 2.18 -1.13 0 -1.34 -0.13 -1.17 -0.71z m7.04 -9.14 c-0.75 -3.02 -1.34 -3.31 -1.84 -0.80 -0.17 0.88 -0.42 2.05 -0.54 2.60 -0.21 0.84 -0.08 0.92 1.38 0.92 l1.63 0 -0.63 -2.72z"/>
  <path d="M309.44 445.30 l0.13 -8.72 3.35 -0.13 c2.77 -0.08 3.60 0.04 4.74 0.75 2.10 1.30 3.19 4.07 3.19 8.22 0 2.89 -0.17 3.65 -1.13 5.28 -1.47 2.52 -3.10 3.27 -7.17 3.27 l-3.19 0 0.08 -8.68z m6.66 5.74 c2.60 -1.43 3.10 -8.64 0.75 -11.15 -0.80 -0.88 -1.30 -1.01 -2.89 -0.92 l-1.89 0.13 -0.13 6.20 -0.13 6.16 1.72 0 c0.96 0 2.10 -0.21 2.56 -0.42z"/>
  <path d="M332.41 445.21 l0 -8.72 4.02 -0.29 c2.18 -0.13 4.15 -0.17 4.32 -0.04 0.21 0.08 0.25 0.67 0.13 1.26 -0.17 0.92 -0.38 1.05 -2.14 1.05 -3.52 0 -3.81 0.21 -3.81 2.77 l0 2.26 2.93 0 2.93 0 0 1.26 c0 1.22 0 1.22 -2.81 1.34 l-2.85 0.13 0 2.72 0 2.72 3.06 0.13 c2.89 0.13 3.02 0.17 3.02 1.13 0 1.05 0 1.05 -4.40 1.05 l-4.40 0 0 -8.76z"/>
  <path d="M289.91 435.24 c-0.67 -0.67 -0.08 -1.47 1.84 -2.43 2.22 -1.13 4.19 -1.38 4.19 -0.50 0 0.80 -5.49 3.48 -6.04 2.93z"/>
  <path d="M150.70 434.69 c-0.67 -0.17 -2.05 -0.34 -3.06 -0.38 -1.51 -0.04 -1.80 -0.17 -1.68 -0.75 0.13 -0.67 0.67 -0.75 4.23 -0.75 l4.11 0 -0.13 1.05 c-0.13 1.17 -1.26 1.43 -3.48 0.84z"/>
  <path d="M270.20 429.03 c-1.34 -0.54 -2.68 -1.22 -2.89 -1.43 -0.25 -0.25 -1.89 -0.46 -3.60 -0.46 -3.60 0 -5.83 -0.84 -7.67 -2.77 -2.31 -2.47 -2.43 -3.23 -2.43 -16.77 0 -8.22 0.17 -12.99 0.50 -14.04 1.22 -4.15 5.24 -6.58 10.10 -6.12 3.10 0.29 5.49 1.80 7 4.49 1.05 1.89 1.05 1.97 1.17 14.04 0.13 11.95 -0.04 14 -1.34 17.06 -0.25 0.54 -0.04 0.75 1.17 1.01 1.47 0.25 1.51 0.29 1.51 2.22 0 2.10 -0.38 3.81 -0.80 3.81 -0.13 0 -1.38 -0.46 -2.72 -1.05z m-5.07 -8.34 c0.54 -0.54 1.09 -1.63 1.26 -2.39 0.13 -0.80 0.21 -6.37 0.13 -12.37 -0.13 -10.27 -0.17 -11.02 -0.96 -11.90 -0.71 -0.80 -1.17 -0.88 -2.85 -0.71 -1.13 0.08 -2.22 0.38 -2.47 0.63 -0.80 0.80 -0.96 3.86 -0.75 14.84 0.21 10.65 0.21 10.77 1.22 11.82 1.30 1.38 3.10 1.43 4.44 0.08z"/>
  <path d="M150.28 426.64 c-3.40 -1.22 -5.20 -3.90 -5.58 -8.13 l-0.17 -2.56 1.34 -0.29 c0.75 -0.13 1.97 -0.25 2.72 -0.25 1.34 0 1.38 0.04 1.68 2.18 0.38 2.60 1.68 4.11 3.56 4.11 2.52 0 3.86 -2.85 2.93 -6.33 -0.42 -1.51 -1.34 -2.68 -5.20 -6.46 -5.11 -5.07 -6.46 -7.17 -6.83 -10.81 -0.67 -6.58 2.89 -10.77 9.10 -10.77 4.69 0.04 8.38 3.73 8.38 8.43 0 1.34 -0.63 1.63 -3.31 1.63 l-1.97 0 -0.63 -1.97 c-0.59 -2.01 -0.59 -2.01 -2.56 -2.14 -1.63 -0.13 -2.05 0.04 -2.60 0.84 -0.84 1.22 -0.84 3.35 0 5.07 0.38 0.75 2.60 3.23 4.95 5.53 4.74 4.65 6.29 7.21 6.75 11.11 0.34 2.77 -0.34 5.99 -1.59 7.88 -1.34 1.97 -4.53 3.44 -7.38 3.40 -1.30 0 -2.89 -0.21 -3.60 -0.46z"/>
  <path d="M282.74 426.39 c-2.05 -0.96 -3.31 -2.31 -4.19 -4.36 -0.54 -1.34 -0.63 -4.11 -0.63 -17.73 l0 -16.14 2.72 0 2.68 0 0.13 15.76 0.13 15.76 1.17 1.01 c1.51 1.30 2.98 1.30 4.28 -0.04 l1.05 -1.01 0 -15.76 0 -15.72 2.93 0 2.98 0 -0.13 16.47 c-0.13 16.18 -0.13 16.47 -1.09 18.19 -1.47 2.77 -3.77 4.07 -7.38 4.23 -2.26 0.08 -3.40 -0.08 -4.65 -0.67z"/>
  <path d="M326.29 426.35 c-2.85 -1.30 -4.40 -3.94 -4.95 -8.47 l-0.21 -1.97 1.55 -0.25 c0.84 -0.13 2.18 -0.25 2.93 -0.25 1.30 0 1.34 0.04 1.34 1.84 0 3.81 3.56 5.87 5.87 3.40 0.84 -0.88 1.01 -1.51 1.01 -3.27 -0.04 -1.22 -0.29 -2.68 -0.54 -3.27 -0.29 -0.54 -2.56 -2.98 -5.03 -5.41 -5.62 -5.49 -6.54 -7.17 -6.54 -11.95 0 -4.02 0.88 -6.12 3.44 -7.92 1.30 -0.88 2.35 -1.22 4.40 -1.38 4.82 -0.42 8.13 1.93 9.18 6.46 0.71 3.10 0.46 3.48 -2.52 3.48 l-2.52 0 -0.42 -1.51 c-0.75 -2.81 -2.18 -3.65 -4.40 -2.64 -1.68 0.80 -2.01 3.60 -0.71 6.16 0.46 0.84 2.72 3.40 5.07 5.66 5.28 5.07 6.41 7.17 6.41 11.99 0 4.95 -2.14 8.76 -5.58 9.68 -2.35 0.67 -5.91 0.46 -7.80 -0.38z"/>
  <path d="M63.55 426.10 c-0.13 -0.38 -0.25 -9.10 -0.25 -19.37 l0 -18.61 6.66 0.13 6.66 0.13 1.63 1.30 c3.14 2.52 3.27 3.02 3.40 16.81 0.13 13.46 -0.04 14.80 -2.10 17.14 -2.22 2.52 -3.23 2.85 -9.81 3.02 -5.24 0.17 -5.95 0.08 -6.20 -0.54z m11.36 -6.25 c0.96 -1.13 0.96 -1.22 0.96 -12.58 0 -11.02 -0.04 -11.49 -0.88 -12.58 -0.80 -1.01 -1.13 -1.13 -3.06 -1.01 l-2.14 0.13 -0.13 13.79 -0.08 13.79 2.18 -0.21 c1.68 -0.17 2.39 -0.46 3.14 -1.34z"/>
  <path d="M87.61 407.44 l0 -19.28 8.17 0 8.22 0 -0.13 2.64 -0.13 2.60 -4.78 0.13 c-2.68 0.04 -5.07 0.34 -5.37 0.59 -0.59 0.46 -0.75 6.62 -0.29 9.14 l0.29 1.34 4.02 -0.13 4.02 -0.17 0.13 2.64 0.13 2.60 -2.64 0 c-1.47 0 -3.35 0.13 -4.19 0.25 l-1.59 0.29 0 5.58 0 5.62 5.24 0 5.24 0 0 2.72 0 2.72 -8.17 0 -8.17 0 0 -19.28z"/>
  <path d="M108.99 407.44 l0 -19.28 3.27 0 3.27 0 3.31 10.98 3.35 10.98 0.13 -10.98 0.08 -10.98 2.72 0 2.72 0 0.08 18.02 c0.04 9.93 0.08 18.53 0.08 19.20 0.04 1.13 0.04 1.13 -2.89 1.13 l-2.89 0 -3.35 -10.77 c-2.18 -7.08 -3.52 -10.81 -3.90 -10.81 -0.42 0 -0.54 2.10 -0.54 10.90 l0 10.90 -2.72 0 -2.72 0 0 -19.28z"/>
  <path d="M134.43 426.43 c-0.17 -0.13 -0.29 -8.80 -0.29 -19.28 l0 -18.99 2.93 0 2.93 0 0 19.28 0 19.28 -2.64 0 c-1.47 0 -2.81 -0.13 -2.93 -0.29z"/>
  <path d="M176.35 426.43 c-0.17 -0.13 -0.29 -8.80 -0.29 -19.28 l0 -18.99 3.98 0 c3.77 0 3.98 0.04 4.19 0.96 0.13 0.50 0.96 4.15 1.89 8.05 0.88 3.94 1.76 7.92 1.93 8.93 0.34 2.26 0.84 2.26 1.17 0 0.63 -3.86 4.15 -17.73 4.61 -18.02 0.42 -0.29 6.92 -0.50 7 -0.21 0.25 1.26 0.38 22.64 0.17 29.51 l-0.29 9.35 -2.68 0 -2.68 0 0 -11.15 c0 -8.72 -0.13 -11.11 -0.50 -10.98 -0.67 0.21 -1.51 3.27 -3.10 10.94 l-1.22 5.74 -1.97 0 c-1.34 0 -2.01 -0.17 -2.01 -0.50 0 -0.29 -0.75 -4.07 -1.72 -8.38 -2.52 -11.23 -2.89 -10.81 -2.89 3.23 l0 11.11 -2.64 0 c-1.47 0 -2.81 -0.13 -2.93 -0.29z"/>
  <path d="M205.40 426.35 c0 -0.17 0.54 -3.44 1.26 -7.21 0.67 -3.77 2.10 -11.95 3.14 -18.19 1.05 -6.20 2.01 -11.65 2.14 -12.03 0.21 -0.63 0.75 -0.75 3.98 -0.75 2.26 0 3.73 0.17 3.73 0.42 0 0.25 0.54 3.60 1.26 7.46 4.23 23.89 5.07 28.50 5.28 29.55 l0.25 1.17 -3.10 -0.13 -3.06 -0.13 -0.59 -4.28 -0.63 -4.32 -3.23 0 c-3.73 0 -3.40 -0.42 -4.19 5.16 l-0.50 3.65 -2.89 0 c-1.55 0 -2.85 -0.17 -2.85 -0.38z m12.58 -14.50 c0 -0.67 -1.17 -8.64 -1.51 -10.14 -0.17 -0.88 -1.43 -1.43 -1.43 -0.63 0 0.17 -0.38 2.56 -0.84 5.32 -0.46 2.77 -0.84 5.28 -0.84 5.58 0 0.34 0.75 0.50 2.31 0.50 1.76 0 2.31 -0.17 2.31 -0.63z"/>
  <path d="M230.55 407.44 l0 -19.28 5.87 0 c5.03 0 6.12 0.13 7.50 0.84 3.52 1.76 4.69 4.44 4.69 10.48 0 4.23 -0.63 6.20 -2.64 8.26 l-1.30 1.34 0.75 2.64 c0.63 2.31 3.56 12.24 4.23 14.25 0.21 0.67 -0.13 0.75 -2.89 0.75 l-3.14 0 -2.14 -7.67 c-1.17 -4.19 -2.14 -7.88 -2.14 -8.17 0 -0.29 -0.59 -0.50 -1.47 -0.50 l-1.47 0 -0.08 8.09 -0.13 8.05 -2.81 0.13 -2.85 0.13 0 -19.32z m10.94 -3.60 c1.84 -1.63 2.01 -7 0.29 -9.18 -0.67 -0.88 -1.17 -1.05 -3.10 -1.05 l-2.26 0 0 5.70 0 5.74 2.14 -0.25 c1.22 -0.17 2.52 -0.59 2.93 -0.96z"/>
  <path d="M302.06 426.06 c-0.13 -0.34 -0.25 -9.05 -0.25 -19.28 l0 -18.61 8.17 0 8.22 0 -0.13 2.64 -0.13 2.60 -4.69 0.13 c-3.31 0.08 -4.78 0.29 -5.11 0.67 -0.34 0.38 -0.46 2.26 -0.38 5.32 l0.13 4.78 3.77 0.08 c2.10 0.04 4.02 0.08 4.32 0.08 0.34 0.04 0.50 0.84 0.50 2.52 l0 2.47 -2.60 0.25 c-1.47 0.13 -3.40 0.29 -4.32 0.38 l-1.68 0.08 0 5.45 0 5.45 5.37 0.13 5.37 0.13 -0.13 2.60 -0.13 2.60 -8.01 0.13 c-7.04 0.08 -8.05 0 -8.30 -0.59z"/>
  <path d="M295.02 372.36 c-0.08 -3.65 -0.08 -16.85 0 -29.34 l0.08 -22.76 22.85 0 22.85 0 0 29.34 0 29.34 -22.85 0 -22.80 0 -0.13 -6.58z"/>
  <path d="M62.88 163.27 l0 -51.35 34.16 0 34.16 0 0 19.62 0 19.66 -10.02 0.25 c-5.53 0.13 -10.27 0.34 -10.48 0.50 -0.34 0.17 -0.46 9.98 -0.46 31.48 l0 31.19 -23.68 0 -23.68 0 0 -51.35z"/>
  <path d="M202.13 30.52 l0.13 -12.28 13.12 -0.13 13.08 -0.08 0 12.37 0 12.37 -13.20 0 -13.20 0 0.08 -12.24z"/>
 </g>
</svg>